<?xml version="1.0" standalone="no"?>
<!DOCTYPE svg PUBLIC "-//W3C//DTD SVG 20010904//EN"
 "http://www.w3.org/TR/2001/REC-SVG-20010904/DTD/svg10.dtd">
<svg version="1.0" xmlns="http://www.w3.org/2000/svg"
 width="279.000000pt" height="260.000000pt" viewBox="0 0 279.000000 260.000000"
 preserveAspectRatio="xMidYMid meet">
<metadata>
Created by potrace 1.16, written by Peter Selinger 2001-2019
</metadata>
<g transform="translate(0.000000,260.000000) scale(0.100000,-0.100000)"
fill="#000000" stroke="none">
<path d="M405 2083 c-49 -25 -85 -64 -118 -128 -27 -53 -31 -70 -31 -145 0
-103 20 -156 57 -144 106 32 168 108 183 223 7 53 -16 152 -44 188 -16 21 -19
21 -47 6z"/>
<path d="M1459 906 c-61 -24 -117 -66 -148 -113 -29 -43 -42 -78 -91 -238 -31
-103 -77 -160 -158 -198 -63 -30 -74 -32 -182 -32 -63 0 -158 4 -210 9 -110
10 -170 -5 -170 -44 0 -86 173 -216 346 -260 83 -21 140 -25 163 -11 11 7 13
29 7 113 -6 98 -5 107 17 139 25 38 114 90 194 114 36 11 97 15 212 15 136 0
168 3 214 20 95 36 152 116 151 215 -1 101 -58 197 -150 251 -54 32 -142 40
-195 20z"/>
</g>
</svg>
